<mxfile host="app.diagrams.net" modified="2023-08-16T13:52:25.122Z" agent="Mozilla/5.0 (X11; Linux x86_64; rv:109.0) Gecko/20100101 Firefox/116.0" etag="oHfyOpQRzby6AcgRmObO" version="21.6.8" type="device">
  <diagram id="1we7CudybwBSkFUA2xfH" name="Pagina-1">
    <mxGraphModel dx="2233" dy="581" grid="1" gridSize="10" guides="1" tooltips="1" connect="1" arrows="1" fold="1" page="1" pageScale="1" pageWidth="827" pageHeight="1169" math="0" shadow="0">
      <root>
        <mxCell id="0" />
        <mxCell id="1" parent="0" />
        <mxCell id="gWuSnun9fz6hFMY-ybAo-1" value="LOOP" style="shape=umlFrame;whiteSpace=wrap;html=1;pointerEvents=0;fillColor=#F5F5F5;strokeColor=#666666;fontColor=#333333;swimlaneFillColor=#E6E6E6;" parent="1" vertex="1">
          <mxGeometry x="-340" y="260" width="1220" height="1850" as="geometry" />
        </mxCell>
        <mxCell id="gWuSnun9fz6hFMY-ybAo-2" value="" style="group" parent="1" vertex="1" connectable="0">
          <mxGeometry x="-275" y="270" width="1060" height="88.08080808080808" as="geometry" />
        </mxCell>
        <mxCell id="gWuSnun9fz6hFMY-ybAo-3" value="LOOP" style="shape=umlFrame;whiteSpace=wrap;html=1;pointerEvents=0;fillColor=#F5F5F5;strokeColor=#666666;swimlaneFillColor=#E6E6E6;" parent="1" vertex="1">
          <mxGeometry x="-300" y="1400" width="1120" height="460" as="geometry" />
        </mxCell>
        <mxCell id="gWuSnun9fz6hFMY-ybAo-6" value="LOOP" style="shape=umlFrame;whiteSpace=wrap;html=1;pointerEvents=0;fillColor=#F5F5F5;strokeColor=#666666;" parent="1" vertex="1">
          <mxGeometry x="-270" y="1450" width="1060" height="120" as="geometry" />
        </mxCell>
        <mxCell id="gWuSnun9fz6hFMY-ybAo-7" value="OPT" style="shape=umlFrame;whiteSpace=wrap;html=1;pointerEvents=0;fillColor=#F5F5F5;strokeColor=#666666;swimlaneFillColor=#E6E6E6;" parent="1" vertex="1">
          <mxGeometry x="-295" y="1291.92" width="1110" height="84" as="geometry" />
        </mxCell>
        <mxCell id="gWuSnun9fz6hFMY-ybAo-8" value="OPT" style="shape=umlFrame;whiteSpace=wrap;html=1;pointerEvents=0;fillColor=#D5E8D4;strokeColor=#82B366;swimlaneFillColor=none;" parent="1" vertex="1">
          <mxGeometry x="-300" y="1880" width="1120" height="200" as="geometry" />
        </mxCell>
        <mxCell id="gWuSnun9fz6hFMY-ybAo-9" value="LOOP" style="shape=umlFrame;whiteSpace=wrap;html=1;pointerEvents=0;fillColor=#F5F5F5;strokeColor=#666666;swimlaneFillColor=#E6E6E6;" parent="1" vertex="1">
          <mxGeometry x="-290" y="1590" width="1090" height="120" as="geometry" />
        </mxCell>
        <mxCell id="gWuSnun9fz6hFMY-ybAo-10" value="approvazioneMenu(servizio)" style="html=1;verticalAlign=bottom;endArrow=block;edgeStyle=elbowEdgeStyle;elbow=vertical;curved=0;rounded=0;labelBackgroundColor=none;exitX=0.5;exitY=0.483;exitDx=0;exitDy=0;exitPerimeter=0;" parent="1" edge="1">
          <mxGeometry x="-0.0028" relative="1" as="geometry">
            <mxPoint x="-209" y="1640.6500000000005" as="sourcePoint" />
            <Array as="points" />
            <mxPoint x="760.5" y="1639.9985714285713" as="targetPoint" />
            <mxPoint as="offset" />
          </mxGeometry>
        </mxCell>
        <mxCell id="gWuSnun9fz6hFMY-ybAo-11" value="servizio modificato" style="html=1;verticalAlign=bottom;endArrow=block;edgeStyle=elbowEdgeStyle;elbow=vertical;curved=0;rounded=0;labelBackgroundColor=none;dashed=1;" parent="1" edge="1">
          <mxGeometry relative="1" as="geometry">
            <mxPoint x="749.454858490566" y="1679.363636363637" as="sourcePoint" />
            <mxPoint x="-215.83333333333394" y="1679.333333333334" as="targetPoint" />
            <Array as="points" />
          </mxGeometry>
        </mxCell>
        <mxCell id="gWuSnun9fz6hFMY-ybAo-12" value="LOOP" style="shape=umlFrame;whiteSpace=wrap;html=1;pointerEvents=0;fillColor=#F5F5F5;strokeColor=#666666;swimlaneFillColor=#E6E6E6;" parent="1" vertex="1">
          <mxGeometry x="-290" y="1730" width="1090" height="110" as="geometry" />
        </mxCell>
        <mxCell id="gWuSnun9fz6hFMY-ybAo-13" value="disponibilità modificata" style="html=1;verticalAlign=bottom;endArrow=none;edgeStyle=elbowEdgeStyle;elbow=vertical;curved=0;rounded=0;startArrow=open;startFill=0;endFill=0;movable=1;resizable=1;rotatable=1;deletable=1;editable=1;locked=0;connectable=1;dashed=1;labelBackgroundColor=none;strokeColor=#666666;" parent="1" edge="1">
          <mxGeometry width="80" relative="1" as="geometry">
            <mxPoint x="-211.83333333333394" y="1810.004" as="sourcePoint" />
            <mxPoint x="758.5" y="1810.004" as="targetPoint" />
            <Array as="points">
              <mxPoint x="269.2830188679246" y="1810.004" />
            </Array>
          </mxGeometry>
        </mxCell>
        <mxCell id="gWuSnun9fz6hFMY-ybAo-16" value="chiusuraEvento(noteFinali?, documentazione?)" style="html=1;verticalAlign=bottom;endArrow=block;edgeStyle=elbowEdgeStyle;elbow=vertical;curved=0;rounded=0;movable=1;resizable=1;rotatable=1;deletable=1;editable=1;locked=0;connectable=1;strokeColor=#666666;labelBackgroundColor=none;" parent="1" edge="1">
          <mxGeometry x="-0.0098" width="80" relative="1" as="geometry">
            <mxPoint x="-210" y="1929.000000000001" as="sourcePoint" />
            <mxPoint x="759.5000000000009" y="1929.25" as="targetPoint" />
            <mxPoint as="offset" />
          </mxGeometry>
        </mxCell>
        <mxCell id="gWuSnun9fz6hFMY-ybAo-17" value="eliminaDatiFinali(noteFinali?, documentazione?)" style="html=1;verticalAlign=bottom;endArrow=block;edgeStyle=elbowEdgeStyle;elbow=vertical;curved=0;rounded=0;movable=1;resizable=1;rotatable=1;deletable=1;editable=1;locked=0;connectable=1;strokeColor=#666666;labelBackgroundColor=none;" parent="1" edge="1">
          <mxGeometry width="80" relative="1" as="geometry">
            <mxPoint x="-210" y="2014.000000000001" as="sourcePoint" />
            <mxPoint x="759.5000000000009" y="2014.25" as="targetPoint" />
          </mxGeometry>
        </mxCell>
        <mxCell id="gWuSnun9fz6hFMY-ybAo-20" value="evento modificato" style="html=1;verticalAlign=bottom;endArrow=none;edgeStyle=elbowEdgeStyle;elbow=vertical;curved=0;rounded=0;startArrow=open;startFill=0;endFill=0;dashed=1;labelBackgroundColor=none;" parent="1" edge="1">
          <mxGeometry width="80" relative="1" as="geometry">
            <mxPoint x="-210" y="1363.92" as="sourcePoint" />
            <mxPoint x="760" y="1363.9248484848486" as="targetPoint" />
            <Array as="points">
              <mxPoint x="270" y="1363.9854545454546" />
            </Array>
          </mxGeometry>
        </mxCell>
        <mxCell id="gWuSnun9fz6hFMY-ybAo-21" value="assegnazioneChef(chef)" style="html=1;verticalAlign=bottom;endArrow=block;edgeStyle=elbowEdgeStyle;elbow=vertical;curved=0;rounded=0;labelBackgroundColor=none;" parent="1" edge="1">
          <mxGeometry x="-0.0004" width="80" relative="1" as="geometry">
            <mxPoint x="-211" y="1330.9199999999992" as="sourcePoint" />
            <mxPoint x="760" y="1330.9199999999992" as="targetPoint" />
            <Array as="points">
              <mxPoint x="360" y="1330.9551515151516" />
              <mxPoint x="291.14" y="1374.9955555555553" />
            </Array>
            <mxPoint as="offset" />
          </mxGeometry>
        </mxCell>
        <mxCell id="gWuSnun9fz6hFMY-ybAo-22" value="prenotazionePersonale(disponibilità, servizio)" style="html=1;verticalAlign=bottom;endArrow=block;edgeStyle=elbowEdgeStyle;elbow=vertical;curved=0;rounded=0;labelBackgroundColor=none;" parent="1" edge="1">
          <mxGeometry x="-0.0028" relative="1" as="geometry">
            <mxPoint x="-210" y="1500" as="sourcePoint" />
            <Array as="points" />
            <mxPoint x="760" y="1501" as="targetPoint" />
            <mxPoint as="offset" />
          </mxGeometry>
        </mxCell>
        <mxCell id="gWuSnun9fz6hFMY-ybAo-23" value="disponibilità modificata" style="html=1;verticalAlign=bottom;endArrow=block;edgeStyle=elbowEdgeStyle;elbow=vertical;curved=0;rounded=0;labelBackgroundColor=none;dashed=1;" parent="1" edge="1">
          <mxGeometry relative="1" as="geometry">
            <mxPoint x="759.5000000000009" y="1536.1933333333327" as="sourcePoint" />
            <mxPoint x="-209.901515151515" y="1536.000000000001" as="targetPoint" />
          </mxGeometry>
        </mxCell>
        <mxCell id="gWuSnun9fz6hFMY-ybAo-24" value="assegnazioneRuolo(disponibilità, ruolo)" style="html=1;verticalAlign=bottom;endArrow=block;edgeStyle=elbowEdgeStyle;elbow=vertical;curved=0;rounded=0;movable=1;resizable=1;rotatable=1;deletable=1;editable=1;locked=0;connectable=1;strokeColor=#666666;labelBackgroundColor=none;" parent="1" edge="1">
          <mxGeometry width="80" relative="1" as="geometry">
            <mxPoint x="-209.75" y="1776.04" as="sourcePoint" />
            <mxPoint x="760.5" y="1776.04" as="targetPoint" />
            <Array as="points">
              <mxPoint x="363.83018867924534" y="1776.04" />
              <mxPoint x="293.02132075471707" y="1822.08" />
            </Array>
          </mxGeometry>
        </mxCell>
        <mxCell id="gWuSnun9fz6hFMY-ybAo-25" value="creazioneEvento(cliente, dataInizio, descrizione)" style="html=1;verticalAlign=bottom;endArrow=block;edgeStyle=elbowEdgeStyle;elbow=vertical;curved=0;rounded=0;strokeColor=#666666;labelBackgroundColor=none;" parent="1" edge="1">
          <mxGeometry width="80" relative="1" as="geometry">
            <mxPoint x="-209.75" y="326.030303030303" as="sourcePoint" />
            <mxPoint x="760.5" y="326.030303030303" as="targetPoint" />
            <Array as="points">
              <mxPoint x="486" y="326.030303030303" />
              <mxPoint x="-224" y="293" />
            </Array>
          </mxGeometry>
        </mxCell>
        <mxCell id="gWuSnun9fz6hFMY-ybAo-26" value="nuovo evento" style="html=1;verticalAlign=bottom;endArrow=none;edgeStyle=elbowEdgeStyle;elbow=vertical;curved=0;rounded=0;startArrow=open;startFill=0;endFill=0;dashed=1;strokeColor=#666666;labelBackgroundColor=none;" parent="1" edge="1">
          <mxGeometry width="80" relative="1" as="geometry">
            <mxPoint x="-212.1199999999999" y="361.08060606060644" as="sourcePoint" />
            <mxPoint x="758.1299999999992" y="361.08060606060644" as="targetPoint" />
            <Array as="points">
              <mxPoint x="483.63" y="361.08060606060604" />
              <mxPoint x="273.63" y="339.060404040404" />
            </Array>
          </mxGeometry>
        </mxCell>
        <mxCell id="gWuSnun9fz6hFMY-ybAo-27" value="evento modificato" style="html=1;verticalAlign=bottom;endArrow=block;edgeStyle=elbowEdgeStyle;elbow=vertical;curved=0;rounded=0;labelBackgroundColor=none;dashed=1;" parent="1" edge="1">
          <mxGeometry relative="1" as="geometry">
            <mxPoint x="759.5000000000009" y="1967.25" as="sourcePoint" />
            <mxPoint x="-210" y="1967" as="targetPoint" />
          </mxGeometry>
        </mxCell>
        <mxCell id="gWuSnun9fz6hFMY-ybAo-28" value="evento modificato" style="html=1;verticalAlign=bottom;endArrow=block;edgeStyle=elbowEdgeStyle;elbow=vertical;curved=0;rounded=0;labelBackgroundColor=none;dashed=1;" parent="1" edge="1">
          <mxGeometry relative="1" as="geometry">
            <mxPoint x="759.5000000000009" y="2053" as="sourcePoint" />
            <mxPoint x="-210" y="2053.25" as="targetPoint" />
            <Array as="points">
              <mxPoint x="730" y="2053" />
            </Array>
          </mxGeometry>
        </mxCell>
        <mxCell id="gWuSnun9fz6hFMY-ybAo-119" value="" style="group" parent="1" vertex="1" connectable="0">
          <mxGeometry x="-294" y="400" width="1110" height="860" as="geometry" />
        </mxCell>
        <mxCell id="gWuSnun9fz6hFMY-ybAo-120" value="LOOP" style="shape=umlFrame;whiteSpace=wrap;html=1;pointerEvents=0;fillColor=#F5F5F5;strokeColor=#666666;swimlaneFillColor=#E6E6E6;gradientColor=none;shadow=0;" parent="gWuSnun9fz6hFMY-ybAo-119" vertex="1">
          <mxGeometry width="1110" height="860" as="geometry" />
        </mxCell>
        <mxCell id="gWuSnun9fz6hFMY-ybAo-123" value="ALT" style="shape=umlFrame;whiteSpace=wrap;html=1;fontColor=#FFA89E;swimlaneFillColor=#FFE6CC;fillColor=#ffe6cc;strokeColor=#d79b00;fillOpacity=60;" parent="1" vertex="1">
          <mxGeometry x="-282.5" y="442" width="1085" height="188" as="geometry" />
        </mxCell>
        <mxCell id="gWuSnun9fz6hFMY-ybAo-124" value="" style="group" parent="1" vertex="1" connectable="0">
          <mxGeometry x="-260" y="493" width="1050" height="110" as="geometry" />
        </mxCell>
        <mxCell id="gWuSnun9fz6hFMY-ybAo-125" value="ALT" style="shape=umlFrame;whiteSpace=wrap;html=1;swimlaneFillColor=#FF9999;fillColor=#f8cecc;strokeColor=#FF3333;fillOpacity=60;fontColor=#FF0000;" parent="gWuSnun9fz6hFMY-ybAo-124" vertex="1">
          <mxGeometry width="1050" height="60" as="geometry" />
        </mxCell>
        <mxCell id="gWuSnun9fz6hFMY-ybAo-126" value="" style="shape=umlFrame;whiteSpace=wrap;html=1;swimlaneFillColor=#FF9999;fillColor=#f8cecc;strokeColor=#FF3333;fillOpacity=60;fontColor=#FF0000;width=10;height=15;" parent="gWuSnun9fz6hFMY-ybAo-124" vertex="1">
          <mxGeometry y="60" width="1050" height="50" as="geometry" />
        </mxCell>
        <mxCell id="gWuSnun9fz6hFMY-ybAo-128" value="" style="shape=umlDestroy;whiteSpace=wrap;html=1;strokeWidth=3;targetShapes=umlLifeline;" parent="gWuSnun9fz6hFMY-ybAo-124" vertex="1">
          <mxGeometry x="1010" y="80" width="20" height="20" as="geometry" />
        </mxCell>
        <mxCell id="gWuSnun9fz6hFMY-ybAo-122" value="nuovo servizio" style="html=1;verticalAlign=bottom;endArrow=none;edgeStyle=elbowEdgeStyle;elbow=vertical;curved=0;rounded=0;startArrow=open;startFill=0;endFill=0;dashed=1;labelBackgroundColor=none;strokeColor=#666666;" parent="gWuSnun9fz6hFMY-ybAo-124" edge="1">
          <mxGeometry width="80" relative="1" as="geometry">
            <mxPoint x="50" y="37.00070707070722" as="sourcePoint" />
            <mxPoint x="1020.2499999999995" y="37.00070707070722" as="targetPoint" />
            <Array as="points">
              <mxPoint x="450.75" y="37.00070707070722" />
              <mxPoint x="520.75" y="14.980505050505315" />
            </Array>
          </mxGeometry>
        </mxCell>
        <mxCell id="gWuSnun9fz6hFMY-ybAo-117" value="2a.1a.1 L&#39;evento associato al servizio è in corso, terminato o eliminato, quindi non è possibile aggiungere ulteriori servizi" style="html=1;verticalAlign=bottom;endArrow=open;edgeStyle=elbowEdgeStyle;elbow=vertical;curved=0;rounded=0;labelBackgroundColor=none;dashed=1;strokeColor=#FF0000;fontColor=#FF0000;endFill=0;exitX=0.343;exitY=0.536;exitDx=0;exitDy=0;exitPerimeter=0;" parent="gWuSnun9fz6hFMY-ybAo-124" edge="1">
          <mxGeometry relative="1" as="geometry">
            <mxPoint x="1017.1599999999999" y="90.05953488372131" as="sourcePoint" />
            <mxPoint x="50" y="89.8893023255813" as="targetPoint" />
          </mxGeometry>
        </mxCell>
        <mxCell id="gWuSnun9fz6hFMY-ybAo-121" value="aggiuntaServizio(tipo, data, luogo, fasciaOraria, numeroPartecipanti, propaga)" style="html=1;verticalAlign=bottom;endArrow=block;edgeStyle=elbowEdgeStyle;elbow=vertical;curved=0;rounded=0;strokeColor=#666666;labelBackgroundColor=none;" parent="1" edge="1">
          <mxGeometry width="80" relative="1" as="geometry">
            <mxPoint x="-210" y="477.00040404040374" as="sourcePoint" />
            <mxPoint x="760.2499999999995" y="477.00040404040374" as="targetPoint" />
            <Array as="points">
              <mxPoint x="200.75" y="477.0004040404042" />
              <mxPoint x="360.75" y="454.98020202020234" />
              <mxPoint x="291.8899999999999" y="499.02060606060604" />
            </Array>
          </mxGeometry>
        </mxCell>
        <mxCell id="gWuSnun9fz6hFMY-ybAo-129" value="" style="shape=umlFrame;whiteSpace=wrap;html=1;fontColor=#FFA89E;swimlaneFillColor=#FFE6CC;fillColor=#ffe6cc;strokeColor=#d79b00;fillOpacity=60;width=10;height=15;" parent="1" vertex="1">
          <mxGeometry x="-282.5" y="630" width="1085" height="220" as="geometry" />
        </mxCell>
        <mxCell id="gWuSnun9fz6hFMY-ybAo-130" value="modificaServizio(servizio, tipo, luogo, numeroPartecipanti, propaga)" style="html=1;verticalAlign=bottom;endArrow=block;edgeStyle=elbowEdgeStyle;elbow=vertical;curved=0;rounded=0;strokeColor=#666666;labelBackgroundColor=none;" parent="1" edge="1">
          <mxGeometry width="80" relative="1" as="geometry">
            <mxPoint x="-209.99999999999977" y="660.000303030303" as="sourcePoint" />
            <mxPoint x="760.2499999999995" y="660.000303030303" as="targetPoint" />
            <Array as="points">
              <mxPoint x="485.75" y="660.000303030303" />
              <mxPoint x="-224.25" y="626.97" />
            </Array>
          </mxGeometry>
        </mxCell>
        <mxCell id="gWuSnun9fz6hFMY-ybAo-131" value="" style="group" parent="1" vertex="1" connectable="0">
          <mxGeometry x="-260" y="670" width="1050" height="110" as="geometry" />
        </mxCell>
        <mxCell id="gWuSnun9fz6hFMY-ybAo-132" value="ALT" style="shape=umlFrame;whiteSpace=wrap;html=1;swimlaneFillColor=#FF9999;fillColor=#f8cecc;strokeColor=#FF3333;fillOpacity=60;fontColor=#FF0000;" parent="gWuSnun9fz6hFMY-ybAo-131" vertex="1">
          <mxGeometry width="1050" height="60" as="geometry" />
        </mxCell>
        <mxCell id="gWuSnun9fz6hFMY-ybAo-133" value="" style="shape=umlFrame;whiteSpace=wrap;html=1;swimlaneFillColor=#FF9999;fillColor=#f8cecc;strokeColor=#FF3333;fillOpacity=60;fontColor=#FF0000;width=10;height=15;" parent="gWuSnun9fz6hFMY-ybAo-131" vertex="1">
          <mxGeometry y="60" width="1050" height="50" as="geometry" />
        </mxCell>
        <mxCell id="gWuSnun9fz6hFMY-ybAo-134" value="servizio modificato" style="html=1;verticalAlign=bottom;endArrow=none;edgeStyle=elbowEdgeStyle;elbow=vertical;curved=0;rounded=0;startArrow=open;startFill=0;endFill=0;dashed=1;strokeColor=#666666;labelBackgroundColor=none;" parent="gWuSnun9fz6hFMY-ybAo-131" edge="1">
          <mxGeometry width="80" relative="1" as="geometry">
            <mxPoint x="50.00000000000023" y="40.000606060606174" as="sourcePoint" />
            <mxPoint x="1020.2499999999995" y="40.000606060606174" as="targetPoint" />
            <Array as="points">
              <mxPoint x="745.75" y="40.00060606060606" />
              <mxPoint x="535.75" y="17.980404040403982" />
            </Array>
          </mxGeometry>
        </mxCell>
        <mxCell id="gWuSnun9fz6hFMY-ybAo-135" value="" style="shape=umlDestroy;whiteSpace=wrap;html=1;strokeWidth=3;targetShapes=umlLifeline;" parent="gWuSnun9fz6hFMY-ybAo-131" vertex="1">
          <mxGeometry x="1010" y="80" width="20" height="20" as="geometry" />
        </mxCell>
        <mxCell id="gWuSnun9fz6hFMY-ybAo-136" value="2a.1a.1 L&#39;evento associato al servizio è in corso, terminato o eliminato, quindi non è possibile modificarne i servizi" style="html=1;verticalAlign=bottom;endArrow=open;edgeStyle=elbowEdgeStyle;elbow=vertical;curved=0;rounded=0;labelBackgroundColor=none;dashed=1;strokeColor=#FF0000;fontColor=#FF0000;endFill=0;exitX=0.343;exitY=0.536;exitDx=0;exitDy=0;exitPerimeter=0;" parent="1" edge="1">
          <mxGeometry relative="1" as="geometry">
            <mxPoint x="758.8599999999992" y="759.7200000000003" as="sourcePoint" />
            <mxPoint x="-208.29999999999995" y="759.5999999999997" as="targetPoint" />
          </mxGeometry>
        </mxCell>
        <mxCell id="gWuSnun9fz6hFMY-ybAo-137" value="" style="shape=umlFrame;whiteSpace=wrap;html=1;swimlaneFillColor=#FF9999;fillColor=#f8cecc;strokeColor=#FF3333;fillOpacity=60;fontColor=#FF0000;width=10;height=15;" parent="1" vertex="1">
          <mxGeometry x="-260" y="780" width="1050" height="50" as="geometry" />
        </mxCell>
        <mxCell id="gWuSnun9fz6hFMY-ybAo-138" value="2a.1b.1 L&#39;evento associato al servizio non è parte di una ricorrenza, quindi non è possibile propagarne le modifiche" style="html=1;verticalAlign=bottom;endArrow=open;edgeStyle=elbowEdgeStyle;elbow=vertical;curved=0;rounded=0;labelBackgroundColor=none;dashed=1;strokeColor=#FF0000;fontColor=#FF0000;endFill=0;exitX=0.343;exitY=0.536;exitDx=0;exitDy=0;exitPerimeter=0;" parent="1" edge="1">
          <mxGeometry relative="1" as="geometry">
            <mxPoint x="757.8599999999992" y="809.7200000000003" as="sourcePoint" />
            <mxPoint x="-209.29999999999995" y="809.5999999999997" as="targetPoint" />
          </mxGeometry>
        </mxCell>
        <mxCell id="gWuSnun9fz6hFMY-ybAo-139" value="" style="shape=umlDestroy;whiteSpace=wrap;html=1;strokeWidth=3;targetShapes=umlLifeline;" parent="1" vertex="1">
          <mxGeometry x="750" y="799" width="20" height="20" as="geometry" />
        </mxCell>
        <mxCell id="gWuSnun9fz6hFMY-ybAo-140" value="" style="shape=umlFrame;whiteSpace=wrap;html=1;fontColor=#FFA89E;swimlaneFillColor=#FFE6CC;fillColor=#ffe6cc;strokeColor=#d79b00;fillOpacity=60;width=10;height=15;" parent="1" vertex="1">
          <mxGeometry x="-282.5" y="850" width="1085" height="220" as="geometry" />
        </mxCell>
        <mxCell id="gWuSnun9fz6hFMY-ybAo-141" value="rimandaServizio(data, fasciaOraria, propaga)" style="html=1;verticalAlign=bottom;endArrow=block;edgeStyle=elbowEdgeStyle;elbow=vertical;curved=0;rounded=0;strokeColor=#666666;labelBackgroundColor=none;" parent="1" edge="1">
          <mxGeometry width="80" relative="1" as="geometry">
            <mxPoint x="-210" y="880.000303030303" as="sourcePoint" />
            <mxPoint x="760.2499999999995" y="880.000303030303" as="targetPoint" />
            <Array as="points">
              <mxPoint x="485.75" y="880.000303030303" />
              <mxPoint x="-224.25" y="846.97" />
            </Array>
          </mxGeometry>
        </mxCell>
        <mxCell id="gWuSnun9fz6hFMY-ybAo-142" value="" style="group" parent="1" vertex="1" connectable="0">
          <mxGeometry x="-260" y="890" width="1050" height="110" as="geometry" />
        </mxCell>
        <mxCell id="gWuSnun9fz6hFMY-ybAo-143" value="ALT" style="shape=umlFrame;whiteSpace=wrap;html=1;swimlaneFillColor=#FF9999;fillColor=#f8cecc;strokeColor=#FF3333;fillOpacity=60;fontColor=#FF0000;" parent="gWuSnun9fz6hFMY-ybAo-142" vertex="1">
          <mxGeometry width="1050" height="60" as="geometry" />
        </mxCell>
        <mxCell id="gWuSnun9fz6hFMY-ybAo-144" value="" style="shape=umlFrame;whiteSpace=wrap;html=1;swimlaneFillColor=#FF9999;fillColor=#f8cecc;strokeColor=#FF3333;fillOpacity=60;fontColor=#FF0000;width=10;height=15;" parent="gWuSnun9fz6hFMY-ybAo-142" vertex="1">
          <mxGeometry y="60" width="1050" height="50" as="geometry" />
        </mxCell>
        <mxCell id="gWuSnun9fz6hFMY-ybAo-145" value="servizio modificato" style="html=1;verticalAlign=bottom;endArrow=none;edgeStyle=elbowEdgeStyle;elbow=vertical;curved=0;rounded=0;startArrow=open;startFill=0;endFill=0;dashed=1;strokeColor=#666666;labelBackgroundColor=none;" parent="gWuSnun9fz6hFMY-ybAo-142" edge="1">
          <mxGeometry width="80" relative="1" as="geometry">
            <mxPoint x="50.00000000000023" y="40.000606060606174" as="sourcePoint" />
            <mxPoint x="1020.2499999999995" y="40.000606060606174" as="targetPoint" />
            <Array as="points">
              <mxPoint x="745.75" y="40.00060606060606" />
              <mxPoint x="535.75" y="17.980404040403982" />
            </Array>
          </mxGeometry>
        </mxCell>
        <mxCell id="gWuSnun9fz6hFMY-ybAo-146" value="" style="shape=umlDestroy;whiteSpace=wrap;html=1;strokeWidth=3;targetShapes=umlLifeline;" parent="gWuSnun9fz6hFMY-ybAo-142" vertex="1">
          <mxGeometry x="1010" y="80" width="20" height="20" as="geometry" />
        </mxCell>
        <mxCell id="gWuSnun9fz6hFMY-ybAo-147" value="2b.1a.1 L&#39;evento associato al servizio non è ricorrente, quindi non è possibile propagarne le modifiche" style="html=1;verticalAlign=bottom;endArrow=open;edgeStyle=elbowEdgeStyle;elbow=vertical;curved=0;rounded=0;labelBackgroundColor=none;dashed=1;strokeColor=#FF0000;fontColor=#FF0000;endFill=0;exitX=0.343;exitY=0.536;exitDx=0;exitDy=0;exitPerimeter=0;" parent="1" edge="1">
          <mxGeometry relative="1" as="geometry">
            <mxPoint x="758.8599999999988" y="979.7200000000003" as="sourcePoint" />
            <mxPoint x="-208.30000000000018" y="979.5999999999997" as="targetPoint" />
          </mxGeometry>
        </mxCell>
        <mxCell id="gWuSnun9fz6hFMY-ybAo-148" value="" style="shape=umlFrame;whiteSpace=wrap;html=1;swimlaneFillColor=#FF9999;fillColor=#f8cecc;strokeColor=#FF3333;fillOpacity=60;fontColor=#FF0000;width=10;height=15;" parent="1" vertex="1">
          <mxGeometry x="-260" y="1000" width="1050" height="50" as="geometry" />
        </mxCell>
        <mxCell id="gWuSnun9fz6hFMY-ybAo-149" value="2b.1b.1 Esiste già un servizio nella stessa data e/o fascia oraria" style="html=1;verticalAlign=bottom;endArrow=open;edgeStyle=elbowEdgeStyle;elbow=vertical;curved=0;rounded=0;labelBackgroundColor=none;dashed=1;strokeColor=#FF0000;fontColor=#FF0000;endFill=0;exitX=0.343;exitY=0.536;exitDx=0;exitDy=0;exitPerimeter=0;" parent="1" edge="1">
          <mxGeometry relative="1" as="geometry">
            <mxPoint x="757.8599999999992" y="1029.7200000000003" as="sourcePoint" />
            <mxPoint x="-209.30000000000018" y="1029.5999999999997" as="targetPoint" />
          </mxGeometry>
        </mxCell>
        <mxCell id="gWuSnun9fz6hFMY-ybAo-150" value="" style="shape=umlDestroy;whiteSpace=wrap;html=1;strokeWidth=3;targetShapes=umlLifeline;" parent="1" vertex="1">
          <mxGeometry x="750" y="1019" width="20" height="20" as="geometry" />
        </mxCell>
        <mxCell id="gWuSnun9fz6hFMY-ybAo-151" value="" style="shape=umlFrame;whiteSpace=wrap;html=1;fontColor=#FFA89E;swimlaneFillColor=#FFE6CC;fillColor=#ffe6cc;strokeColor=#d79b00;fillOpacity=60;width=10;height=15;" parent="1" vertex="1">
          <mxGeometry x="-282.5" y="1070" width="1085" height="170" as="geometry" />
        </mxCell>
        <mxCell id="gWuSnun9fz6hFMY-ybAo-152" value="eliminaServizio(servizio, propaga)" style="html=1;verticalAlign=bottom;endArrow=block;edgeStyle=elbowEdgeStyle;elbow=vertical;curved=0;rounded=0;strokeColor=#666666;labelBackgroundColor=none;" parent="1" edge="1">
          <mxGeometry width="80" relative="1" as="geometry">
            <mxPoint x="-210" y="1100.000303030303" as="sourcePoint" />
            <mxPoint x="760.2499999999995" y="1100.000303030303" as="targetPoint" />
            <Array as="points">
              <mxPoint x="485.75" y="1100.000303030303" />
              <mxPoint x="-224.25" y="1066.97" />
            </Array>
          </mxGeometry>
        </mxCell>
        <mxCell id="gWuSnun9fz6hFMY-ybAo-153" value="" style="group" parent="1" vertex="1" connectable="0">
          <mxGeometry x="-260" y="1110" width="1050" height="110" as="geometry" />
        </mxCell>
        <mxCell id="gWuSnun9fz6hFMY-ybAo-154" value="ALT" style="shape=umlFrame;whiteSpace=wrap;html=1;swimlaneFillColor=#FF9999;fillColor=#f8cecc;strokeColor=#FF3333;fillOpacity=60;fontColor=#FF0000;" parent="gWuSnun9fz6hFMY-ybAo-153" vertex="1">
          <mxGeometry width="1050" height="60" as="geometry" />
        </mxCell>
        <mxCell id="gWuSnun9fz6hFMY-ybAo-155" value="" style="shape=umlFrame;whiteSpace=wrap;html=1;swimlaneFillColor=#FF9999;fillColor=#f8cecc;strokeColor=#FF3333;fillOpacity=60;fontColor=#FF0000;width=10;height=15;" parent="gWuSnun9fz6hFMY-ybAo-153" vertex="1">
          <mxGeometry y="60" width="1050" height="50" as="geometry" />
        </mxCell>
        <mxCell id="gWuSnun9fz6hFMY-ybAo-156" value="servizio eliminato" style="html=1;verticalAlign=bottom;endArrow=none;edgeStyle=elbowEdgeStyle;elbow=vertical;curved=0;rounded=0;startArrow=open;startFill=0;endFill=0;dashed=1;strokeColor=#666666;labelBackgroundColor=none;" parent="gWuSnun9fz6hFMY-ybAo-153" edge="1">
          <mxGeometry width="80" relative="1" as="geometry">
            <mxPoint x="50.00000000000023" y="40.000606060606174" as="sourcePoint" />
            <mxPoint x="1020.2499999999995" y="40.000606060606174" as="targetPoint" />
            <Array as="points">
              <mxPoint x="745.75" y="40.00060606060606" />
              <mxPoint x="535.75" y="17.980404040403982" />
            </Array>
          </mxGeometry>
        </mxCell>
        <mxCell id="gWuSnun9fz6hFMY-ybAo-157" value="" style="shape=umlDestroy;whiteSpace=wrap;html=1;strokeWidth=3;targetShapes=umlLifeline;" parent="gWuSnun9fz6hFMY-ybAo-153" vertex="1">
          <mxGeometry x="1010" y="80" width="20" height="20" as="geometry" />
        </mxCell>
        <mxCell id="gWuSnun9fz6hFMY-ybAo-158" value="2c.1a.1 L&#39;evento associato al servizio è terminato oppure cancellato, quindi non è possibile eliminarne i servizi" style="html=1;verticalAlign=bottom;endArrow=open;edgeStyle=elbowEdgeStyle;elbow=vertical;curved=0;rounded=0;labelBackgroundColor=none;dashed=1;strokeColor=#FF0000;fontColor=#FF0000;endFill=0;exitX=0.343;exitY=0.536;exitDx=0;exitDy=0;exitPerimeter=0;" parent="1" edge="1">
          <mxGeometry relative="1" as="geometry">
            <mxPoint x="758.8599999999983" y="1199.7200000000003" as="sourcePoint" />
            <mxPoint x="-208.30000000000018" y="1199.5999999999997" as="targetPoint" />
          </mxGeometry>
        </mxCell>
        <mxCell id="gWuSnun9fz6hFMY-ybAo-110" value="" style="shape=umlLifeline;perimeter=lifelinePerimeter;whiteSpace=wrap;html=1;container=1;dropTarget=0;collapsible=0;recursiveResize=0;outlineConnect=0;portConstraint=eastwest;newEdgeStyle={&quot;edgeStyle&quot;:&quot;elbowEdgeStyle&quot;,&quot;elbow&quot;:&quot;vertical&quot;,&quot;curved&quot;:0,&quot;rounded&quot;:0};participant=umlActor;" parent="1" vertex="1">
          <mxGeometry x="-220" y="170" width="20" height="1990" as="geometry" />
        </mxCell>
        <mxCell id="gWuSnun9fz6hFMY-ybAo-109" value="Sistema" style="shape=umlLifeline;perimeter=lifelinePerimeter;whiteSpace=wrap;html=1;container=1;dropTarget=0;collapsible=0;recursiveResize=0;outlineConnect=0;portConstraint=eastwest;newEdgeStyle={&quot;edgeStyle&quot;:&quot;elbowEdgeStyle&quot;,&quot;elbow&quot;:&quot;vertical&quot;,&quot;curved&quot;:0,&quot;rounded&quot;:0};" parent="1" vertex="1">
          <mxGeometry x="710" y="190" width="100" height="1970" as="geometry" />
        </mxCell>
      </root>
    </mxGraphModel>
  </diagram>
</mxfile>
